# xmcd
#
# Track frame offsets:
#	150
#	18914
#	33422
#	53407
#	70259
#	87624
#	105816
#	124570
#	139102
#	159033
#	175899
#	193318
#
# Disc length: 2820 seconds
#
# Revision: 1
# Processed by: cddbd v1.5.2PL0 Copyright (c) Steve Scherf et al.
# Submitted via: audiograbber 1.83.01
#
DISCID=910b020c
DTITLE=Clark, Terri - CB20264
DYEAR=1900
DGENRE=Karaoke
TTITLE0=No Fear w/vocal
TTITLE1=Getting There w/vocal
TTITLE2=Sometimes Goodbye w/vocal
TTITLE3=Real Thing, The w/vocal
TTITLE4=Easy From Now On w/vocal
TTITLE5=Take My Time w/vocal
TTITLE6=No Fear
TTITLE7=Getting There
TTITLE8=Sometimes Goodbye
TTITLE9=Real Thing, The
TTITLE10=Easy From Now On
TTITLE11=Take My Time
EXTD=
EXTT0=
EXTT1=
EXTT2=
EXTT3=
EXTT4=
EXTT5=
EXTT6=
EXTT7=
EXTT8=
EXTT9=
EXTT10=
EXTT11=
PLAYORDER=
